<?xml version="1.0" encoding="UTF-8"?>
<svg width="456" height="456" viewBox="0 0 456 456" xmlns="http://www.w3.org/2000/svg">

  <!-- CAVALO (peça preta) — centro X=270, base Y=390 -->
  <g transform="translate(270,390)">
    <!-- Contorno -->
    <rect x="-56" y="-22" width="112" height="22" rx="6" fill="#3D2810"/>
    <rect x="-47" y="-36" width="94" height="16" rx="4" fill="#3D2810"/>
    <!-- Peça -->
    <rect x="-52" y="-22" width="104" height="22" rx="6" fill="#1E1209"/>
    <rect x="-44" y="-36" width="88" height="16" rx="4" fill="#1E1209"/>
    <path d="M -36,-36 L 36,-36 L 26,-118 L -26,-118 Z" fill="#1E1209"/>
    <rect x="-44" y="-132" width="88" height="16" rx="4" fill="#1E1209"/>
    <path d="M -24,-132 L 30,-132 L 44,-172 L -12,-172 Z" fill="#1E1209"/>
    <path d="M -12,-172 L 44,-172 C 62,-172 72,-158 72,-146 C 72,-132 60,-124 46,-120 L 26,-116 L -44,-132 L -24,-132 Z" fill="#1E1209"/>
    <path d="M 44,-172 L 50,-190 L 64,-196 L 74,-184 C 76,-170 72,-152 72,-146 C 70,-158 62,-172 44,-172 Z" fill="#1E1209"/>
    <path d="M 50,-190 L 44,-210 L 60,-208 L 64,-196 Z" fill="#2E1E0C"/>
    <circle cx="46" cy="-178" r="4" fill="#3D2810"/>
    <circle cx="47" cy="-179" r="2" fill="#6A4820"/>
  </g>

  <!-- REI (peça branca) — centro X=182, base Y=390 -->
  <g transform="translate(182,390)" fill="#EED5A0">
    <rect x="-64" y="-24" width="128" height="24" rx="6"/>
    <rect x="-54" y="-40" width="108" height="18" rx="4"/>
    <path d="M -44,-40 L 44,-40 L 34,-148 L -34,-148 Z"/>
    <rect x="-54" y="-162" width="108" height="16" rx="4"/>
    <rect x="-28" y="-184" width="56" height="24" rx="3"/>
    <rect x="-36" y="-204" width="72" height="22" rx="6"/>
    <rect x="-18" y="-228" width="36" height="26" rx="12"/>
    <rect x="-6" y="-296" width="12" height="70" rx="3"/>
    <rect x="-28" y="-280" width="56" height="12" rx="3"/>
  </g>

</svg>
